<svg xmlns="http://www.w3.org/2000/svg" viewBox="0 0 77 21" fill="#1c1e21">
  <path
    d="M17.466 6.267l-.004-4.801C17.463.655 16.806 0 16.001 0h-2.735v19.812h4.145l.056-10.466h.004V6.267h-.004zm42.666 13.542h-4.145V.249h2.69c.801 0 1.454.651 1.454 1.458v18.101z"/>
  <path fill-rule="evenodd"
        d="M36.083 20.229c-1.418 0-2.675-.294-3.766-.885s-1.941-1.432-2.549-2.525-.909-2.399-.909-3.913c0-2.469.612-4.381 1.833-5.739s2.972-2.034 5.251-2.034c1.566 0 2.831.338 3.792 1.012s1.666 1.655 2.115 2.946.66 2.864.642 4.716H33.14c.144.752.429 1.37.854 1.852.646.729 1.674 1.093 3.095 1.093a6.68 6.68 0 0 0 1.555-.182c.512-.123.994-.268 1.443-.435l1.147-.45v3.593a13.06 13.06 0 0 1-2.252.688c-.831.178-1.796.264-2.898.264zm-2.705-10.194c-.119.31-.207.678-.265 1.105h5.236c-.098-.833-.286-1.459-.563-1.878-.412-.617-1.083-.926-2.015-.926-.523 0-.995.13-1.414.394s-.746.695-.98 1.305z"/>
  <path
    d="M4.672 20.229c-1.009 0-1.87-.108-2.59-.323l-2.03-.714v-3.675l1.317.8c.486.271 1.02.491 1.61.658s1.21.253 1.863.253c.672 0 1.143-.115 1.414-.35a1.09 1.09 0 0 0 .404-.855c0-.32-.141-.577-.419-.77s-.642-.361-1.091-.491l-1.429-.364a6.73 6.73 0 0 1-1.343-.435c-.449-.197-.85-.465-1.202-.8a3.73 3.73 0 0 1-.853-1.25C.108 11.418 0 10.815 0 10.101c0-.915.178-1.677.531-2.287A4.32 4.32 0 0 1 1.93 6.341a5.92 5.92 0 0 1 1.878-.8 7.49 7.49 0 0 1 1.959-.212c1.158.037 2.078.164 2.757.379a8.67 8.67 0 0 1 1.863.829v3.284l-1.889-.997c-.627-.309-1.34-.461-2.141-.461-.727 0-1.251.112-1.566.338a1.04 1.04 0 0 0-.475.896c0 .357.108.636.323.841s.497.368.853.491l1.176.35 1.443.405a5.71 5.71 0 0 1 1.399.673c.438.29.794.692 1.065 1.205s.404 1.194.404 2.034c-.019 1.142-.327 2.053-.924 2.737s-1.369 1.168-2.308 1.458c-.954.29-1.978.435-3.076.435zM44.707 7.096v12.716h4.167V8.841c.319-.056.709-.093 1.176-.112l1.484-.015 1.51.071c.482.037.883.093 1.202.167V5.895c-.26-.205-.642-.376-1.147-.506s-1.195-.197-2.071-.197a10 10 0 0 0-2.616.35c-.865.234-1.636.495-2.308.785s-1.139.547-1.399.77z"/>
  <path fill-rule="evenodd"
        d="M64.121 18.306c1.202 1.283 2.998 1.923 5.388 1.923 2.334 0 4.126-.64 5.373-1.923s1.878-3.165 1.878-5.653c0-1.741-.278-3.161-.828-4.266s-1.362-1.923-2.434-2.455-2.405-.8-3.989-.8c-2.353 0-4.141.588-5.362 1.755s-1.833 3.091-1.833 5.765c0 2.488.605 4.374 1.807 5.653zm7.11-1.904c-.456.327-1.032.491-1.722.491-1.046 0-1.815-.353-2.312-1.056s-.742-1.763-.742-3.184c0-1.026.108-1.845.323-2.455s.546-1.053.995-1.332 1.028-.42 1.737-.42c.672 0 1.239.134 1.707.405s.816.714 1.05 1.32.349 1.436.349 2.484c0 .915-.115 1.689-.349 2.313s-.579 1.105-1.035 1.432z"/>
  <path
    d="M24.187 5.724c.783.335 1.395.881 1.833 1.64s.657 1.8.66 3.132v9.317h-4.171v-8.446c0-.934-.23-1.614-.686-2.034s-1.128-.632-2.004-.632a4.99 4.99 0 0 0-1.258.164V5.772c.95-.364 1.919-.554 2.909-.554 1.028 0 1.933.167 2.716.506z"/>
</svg>
